<svg width="80" height="70" viewBox="0 0 80 70" fill="none" xmlns="http://www.w3.org/2000/svg">
<ellipse cx="40" cy="51.8718" rx="40" ry="15.5615" fill="#5FCF80"/>
<ellipse rx="19.5692" ry="10.6709" transform="matrix(0.231072 -0.972937 0.957217 0.28937 54.2764 23.1649)" fill="#5FCF80"/>
<ellipse rx="19.3303" ry="10.8293" transform="matrix(-0.381975 -0.924173 0.884999 -0.465592 27.0825 22.9065)" fill="#5FCF80"/>
<ellipse cx="40.4598" cy="38.3851" rx="27.5862" ry="31.1231" fill="#5FCF80"/>
<path d="M35.1018 26.0947H32.2893V29H30.8245V21.8906H35.4534V23.0771H32.2893V24.9131H35.1018V26.0947ZM39.052 25.04C38.8599 25.014 38.6907 25.001 38.5442 25.001C38.0103 25.001 37.6604 25.1816 37.4944 25.543V29H36.0832V23.7168H37.4163L37.4553 24.3467C37.7385 23.8617 38.1308 23.6191 38.6321 23.6191C38.7883 23.6191 38.9348 23.6403 39.0715 23.6826L39.052 25.04ZM39.3401 26.3096C39.3401 25.7855 39.441 25.3184 39.6428 24.9082C39.8446 24.498 40.1344 24.1807 40.512 23.9561C40.8928 23.7314 41.3339 23.6191 41.8352 23.6191C42.5481 23.6191 43.1291 23.8372 43.5784 24.2734C44.0308 24.7096 44.2831 25.3021 44.3352 26.0508L44.345 26.4121C44.345 27.2227 44.1187 27.8737 43.6663 28.3652C43.2138 28.8535 42.6067 29.0977 41.845 29.0977C41.0832 29.0977 40.4745 28.8535 40.0188 28.3652C39.5663 27.877 39.3401 27.2129 39.3401 26.373V26.3096ZM40.7512 26.4121C40.7512 26.9134 40.8456 27.2975 41.0344 27.5645C41.2232 27.8281 41.4934 27.96 41.845 27.96C42.1868 27.96 42.4537 27.8298 42.6457 27.5693C42.8378 27.3057 42.9338 26.8857 42.9338 26.3096C42.9338 25.818 42.8378 25.4372 42.6457 25.167C42.4537 24.8968 42.1835 24.7617 41.8352 24.7617C41.4901 24.7617 41.2232 24.8968 41.0344 25.167C40.8456 25.4339 40.7512 25.849 40.7512 26.4121ZM45.009 26.3193C45.009 25.5088 45.2011 24.8561 45.5852 24.3613C45.9726 23.8665 46.4934 23.6191 47.1477 23.6191C47.7271 23.6191 48.178 23.8177 48.5002 24.2148L48.5588 23.7168H49.8381V28.8242C49.8381 29.2865 49.7323 29.6885 49.5207 30.0303C49.3124 30.3721 49.0178 30.6325 48.637 30.8115C48.2561 30.9906 47.8101 31.0801 47.2991 31.0801C46.9117 31.0801 46.5341 31.002 46.1663 30.8457C45.7984 30.6927 45.5201 30.4941 45.3313 30.25L45.9563 29.3906C46.3079 29.7845 46.7343 29.9814 47.2356 29.9814C47.6099 29.9814 47.9013 29.8805 48.1096 29.6787C48.3179 29.4801 48.4221 29.1969 48.4221 28.8291V28.5459C48.0966 28.9137 47.6685 29.0977 47.1379 29.0977C46.5032 29.0977 45.9888 28.8503 45.595 28.3555C45.2043 27.8574 45.009 27.1982 45.009 26.3779V26.3193ZM46.4202 26.4219C46.4202 26.9004 46.5162 27.2764 46.7082 27.5498C46.9003 27.82 47.164 27.9551 47.4993 27.9551C47.9289 27.9551 48.2366 27.7939 48.4221 27.4717V25.25C48.2333 24.9277 47.9289 24.7666 47.509 24.7666C47.1705 24.7666 46.9036 24.9049 46.7082 25.1816C46.5162 25.4583 46.4202 25.8717 46.4202 26.4219ZM24.8625 41V33.8906H27.3528C28.2154 33.8906 28.8697 34.0566 29.3157 34.3887C29.7616 34.7174 29.9846 35.2008 29.9846 35.8389C29.9846 36.1872 29.8951 36.4948 29.7161 36.7617C29.537 37.0254 29.288 37.2191 28.969 37.3428C29.3336 37.4339 29.62 37.6178 29.8284 37.8945C30.04 38.1712 30.1457 38.5098 30.1457 38.9102C30.1457 39.5938 29.9276 40.1113 29.4914 40.4629C29.0553 40.8145 28.4335 40.9935 27.6262 41H24.8625ZM26.3274 37.9043V39.8232H27.5823C27.9273 39.8232 28.1959 39.7419 28.3879 39.5791C28.5832 39.4131 28.6809 39.1852 28.6809 38.8955C28.6809 38.2445 28.344 37.9141 27.6702 37.9043H26.3274ZM26.3274 36.8691H27.4114C28.1503 36.8561 28.5198 36.5615 28.5198 35.9854C28.5198 35.6631 28.4254 35.432 28.2366 35.292C28.051 35.1488 27.7564 35.0771 27.3528 35.0771H26.3274V36.8691ZM34.3206 40.4629C33.9722 40.8861 33.4905 41.0977 32.8752 41.0977C32.3088 41.0977 31.8759 40.9349 31.5764 40.6094C31.2802 40.2839 31.1288 39.807 31.1223 39.1787V35.7168H32.5334V39.1299C32.5334 39.68 32.7841 39.9551 33.2854 39.9551C33.7639 39.9551 34.0927 39.7891 34.2717 39.457V35.7168H35.6877V41H34.3596L34.3206 40.4629ZM36.5325 38.3193C36.5325 37.4958 36.7164 36.8398 37.0842 36.3516C37.4553 35.8633 37.9615 35.6191 38.6028 35.6191C39.1171 35.6191 39.5419 35.8112 39.8772 36.1953V33.5H41.2932V41H40.0188L39.9504 40.4385C39.5989 40.8779 39.1464 41.0977 38.593 41.0977C37.9713 41.0977 37.4716 40.8535 37.094 40.3652C36.7196 39.8737 36.5325 39.1917 36.5325 38.3193ZM37.9436 38.4219C37.9436 38.9167 38.0299 39.2959 38.2024 39.5596C38.3749 39.8232 38.6256 39.9551 38.9543 39.9551C39.3905 39.9551 39.6982 39.7712 39.8772 39.4033V37.3184C39.7014 36.9505 39.397 36.7666 38.9641 36.7666C38.2838 36.7666 37.9436 37.3184 37.9436 38.4219ZM42.1819 38.3193C42.1819 37.5088 42.3739 36.8561 42.7581 36.3613C43.1454 35.8665 43.6663 35.6191 44.3206 35.6191C44.9 35.6191 45.3508 35.8177 45.6731 36.2148L45.7317 35.7168H47.011V40.8242C47.011 41.2865 46.9052 41.6885 46.6936 42.0303C46.4853 42.3721 46.1907 42.6325 45.8098 42.8115C45.4289 42.9906 44.983 43.0801 44.4719 43.0801C44.0845 43.0801 43.7069 43.002 43.3391 42.8457C42.9713 42.6927 42.6929 42.4941 42.5041 42.25L43.1291 41.3906C43.4807 41.7845 43.9071 41.9814 44.4084 41.9814C44.7828 41.9814 45.0741 41.8805 45.2825 41.6787C45.4908 41.4801 45.595 41.1969 45.595 40.8291V40.5459C45.2694 40.9137 44.8414 41.0977 44.3108 41.0977C43.676 41.0977 43.1617 40.8503 42.7678 40.3555C42.3772 39.8574 42.1819 39.1982 42.1819 38.3779V38.3193ZM43.593 38.4219C43.593 38.9004 43.689 39.2764 43.8811 39.5498C44.0732 39.82 44.3368 39.9551 44.6721 39.9551C45.1018 39.9551 45.4094 39.7939 45.595 39.4717V37.25C45.4062 36.9277 45.1018 36.7666 44.6819 36.7666C44.3433 36.7666 44.0764 36.9049 43.8811 37.1816C43.689 37.4583 43.593 37.8717 43.593 38.4219ZM50.5315 41.0977C49.7567 41.0977 49.1252 40.86 48.637 40.3848C48.1519 39.9095 47.9094 39.2764 47.9094 38.4854V38.3486C47.9094 37.818 48.012 37.3444 48.217 36.9277C48.4221 36.5078 48.7118 36.1855 49.0862 35.9609C49.4638 35.7331 49.8935 35.6191 50.3752 35.6191C51.0979 35.6191 51.6659 35.847 52.0793 36.3027C52.496 36.7585 52.7043 37.4046 52.7043 38.2412V38.8174H49.3401C49.3857 39.1624 49.5224 39.4391 49.7502 39.6475C49.9814 39.8558 50.2727 39.96 50.6243 39.96C51.1679 39.96 51.5927 39.763 51.8987 39.3691L52.592 40.1455C52.3804 40.445 52.094 40.6794 51.7327 40.8486C51.3713 41.0146 50.9709 41.0977 50.5315 41.0977ZM50.3704 36.7617C50.0904 36.7617 49.8625 36.8561 49.6868 37.0449C49.5142 37.2337 49.4036 37.5039 49.3547 37.8555H51.3176V37.7432C51.3111 37.4307 51.2265 37.1898 51.0637 37.0205C50.901 36.848 50.6698 36.7617 50.3704 36.7617ZM55.1995 34.418V35.7168H56.1028V36.752H55.1995V39.3887C55.1995 39.584 55.2369 39.724 55.3118 39.8086C55.3866 39.8932 55.5299 39.9355 55.7414 39.9355C55.8977 39.9355 56.036 39.9242 56.1565 39.9014V40.9707C55.8798 41.0553 55.595 41.0977 55.302 41.0977C54.3124 41.0977 53.8079 40.598 53.7883 39.5986V36.752H53.0168V35.7168H53.7883V34.418H55.1995Z" fill="white"/>
<path d="M12.8736 51.8718C44.1379 67.4334 67.2797 51.8718 68.9655 51.8718" stroke="white"/>
<path d="M68.4313 56.5207C71.0849 49.9514 65.7149 48.1005 65.6307 47.8396" stroke="white"/>
<path d="M16.6278 47.4538C10.8522 50.5618 13.9114 55.874 13.8272 56.1349" stroke="white"/>
</svg>
