<?xml version="1.0" encoding="UTF-8"?>
<svg width="1024px" height="847px" viewBox="0 0 1024 847" version="1.1" xmlns="http://www.w3.org/2000/svg" xmlns:xlink="http://www.w3.org/1999/xlink">
    <!-- Generator: Sketch 51.3 (57544) - http://www.bohemiancoding.com/sketch -->
    <title> Frog Logo</title>
    <desc>Created with Sketch.</desc>
    <defs></defs>
    <g id="Logo" stroke="none" stroke-width="1" fill="none" fill-rule="evenodd">
        <g id="-Frog-Logo" transform="translate(0.000000, -38.000000)">
            <ellipse id="mouth" fill="#5FCF80" fill-rule="nonzero" cx="511.964155" cy="655.977447" rx="511.964155" ry="200.924471"></ellipse>
            <ellipse id="rightEar" fill="#5FCF80" fill-rule="nonzero" transform="translate(693.478720, 284.500808) rotate(-76.428464) translate(-693.478720, -284.500808) " cx="693.47872" cy="284.500808" rx="251.327858" ry="137.843533"></ellipse>
            <ellipse id="leftEar" fill="#5FCF80" fill-rule="nonzero" transform="translate(344.412250, 282.164477) rotate(-113.345527) translate(-344.412250, -282.164477) " cx="344.41225" cy="282.164477" rx="246.673638" ry="140.179864"></ellipse>
            <ellipse id="head" fill="#5FCF80" fill-rule="nonzero" cx="516.618375" cy="483.088948" rx="353.720689" ry="401.848943"></ellipse>
            <g id="Eye-Group" transform="translate(302.209552, 239.625321)">
                <g id="Left-Eye-&amp;-Brow" transform="translate(0.000000, 3.148231)">
                    <path d="M2.92108427,13.871 C94.2352366,121.432088 161.82587,13.871 166.749614,13.871" id="eyebrow" stroke="#FFFFFF" stroke-width="18.772019" transform="translate(84.835349, 37.773464) scale(1, -1) rotate(10.000000) translate(-84.835349, -37.773464) "></path>
                    <text id="$" font-family="Roboto-Bold, Roboto" font-size="163.82853" font-weight="bold" fill="#FFFFFF">
                        <tspan x="37.052028" y="220.548613">$</tspan>
                    </text>
                </g>
                <g id="Right-Eye-&amp;-Brow" transform="translate(264.502408, 0.000000)">
                    <path d="M2.74450726,14.0797847 C94.943709,115.482324 163.189455,14.0797847 168.160922,14.0797847" id="eyebrow" stroke="#FFFFFF" stroke-width="18.772019" transform="translate(85.452714, 36.613682) scale(-1, -1) rotate(10.000000) translate(-85.452714, -36.613682) "></path>
                    <text id="$" font-family="Roboto-Bold, Roboto" font-size="163.82853" font-weight="bold" fill="#FFFFFF">
                        <tspan x="26.6042761" y="223.696844">$</tspan>
                    </text>
                </g>
            </g>
            <path d="M162.897686,649.737943 C562.397102,849.494249 858.106125,649.737943 879.647503,649.737943" id="Smile" stroke="#FFFFFF" stroke-width="18.772019"></path>
            <path d="M874.6171,710.48255 C909.540066,625.619242 838.867649,601.709009 837.759527,598.338659" id="Smile---rightDimple" stroke="#FFFFFF" stroke-width="18.772019"></path>
            <path d="M214.094101,593.665997 C138.066107,633.815657 178.336355,702.439539 177.227975,705.809888" id="Smile---leftDimple" stroke="#FFFFFF" stroke-width="18.772019"></path>
        </g>
    </g>
</svg>